<?xml version="1.0" encoding="utf-8"?>
<!-- Generator: Adobe Illustrator 24.3.0, SVG Export Plug-In . SVG Version: 6.00 Build 0)  -->
<svg version="1.1" id="Capa_1" xmlns="http://www.w3.org/2000/svg" xmlns:xlink="http://www.w3.org/1999/xlink" x="0px" y="0px"
	 viewBox="0 0 511 511" style="enable-background:new 0 0 511 511;" xml:space="preserve">
<style type="text/css">
	.st0{fill:#FFFFFF;}
</style>
<path class="st0" d="M445.7,469.9l-14.4-359c-0.3-8.3-7.1-14.9-15.5-14.9H351v-0.5C351,42.8,308.2,0,255.5,0S160,42.8,160,95.5V96
	H95.2c-8.4,0-15.2,6.5-15.5,14.9l-14.4,359c-0.4,10.8,3.5,21.1,11,28.9c7.5,7.8,17.6,12.1,28.5,12.1h301.4c10.9,0,21-4.3,28.5-12.1
	C442.2,491,446.1,480.8,445.7,469.9z M175,95.5c0-44.4,36.1-80.5,80.5-80.5S336,51.1,336,95.5V96H175V95.5z M423.9,488.5
	c-4.7,4.9-10.9,7.5-17.7,7.5H104.8c-6.7,0-13-2.7-17.7-7.5s-7.1-11.2-6.8-18l14.4-359c0-0.3,0.2-0.5,0.5-0.5H160v48.5
	c0,4.1,3.4,7.5,7.5,7.5s7.5-3.4,7.5-7.5V111h161v48.5c0,4.1,3.4,7.5,7.5,7.5s7.5-3.4,7.5-7.5V111h64.8c0.3,0,0.5,0.2,0.5,0.5
	l14.4,359C430.9,477.2,428.5,483.6,423.9,488.5z"/>
</svg>
