<?xml version="1.0" encoding="utf-8"?>
<!-- Generator: Adobe Illustrator 24.3.0, SVG Export Plug-In . SVG Version: 6.00 Build 0)  -->
<svg version="1.1" id="Layer_1" xmlns="http://www.w3.org/2000/svg" xmlns:xlink="http://www.w3.org/1999/xlink" x="0px" y="0px"
	 viewBox="0 0 512 512" style="enable-background:new 0 0 512 512;" xml:space="preserve">
<style type="text/css">
	.st0{fill:#FFFFFF;}
</style>
<g>
	<g>
		<g>
			<path class="st0" d="M177.6,179.8c-3.3-29.5-26.8-51.8-54.4-51.8H68.8c-27.6,0-51.1,22.3-54.4,51.8L0.2,303.7
				c-1.2,10.4,2,20.7,8.8,28.2c5.8,6.5,13.5,10.3,21.9,10.8l11.8,159.4c0.4,5.6,5.1,9.9,10.7,9.9h85.3c5.6,0,10.2-4.3,10.6-9.9
				l11.8-159.4c8.4-0.5,16.1-4.3,21.9-10.8c6.7-7.6,9.9-17.9,8.8-28.2L177.6,179.8z"/>
			<path class="st0" d="M96,106.7c29.5,0,53.3-23.9,53.3-53.3S125.5,0,96,0C66.6,0,42.7,23.9,42.7,53.3
				C42.7,82.8,66.6,106.7,96,106.7z"/>
			<path class="st0" d="M354.6,20.5c4.7-2,7.3-7,6.3-11.9c-1-4.9-5.4-8.5-10.5-8.5h-105c-17.6,0-32,14.4-32,32v384
				c0,17.6,14.4,32,32,32h21.3c5.9,0,10.7-4.8,10.7-10.7V98c0-27,16-51.3,40.9-62L354.6,20.5z"/>
			<path class="st0" d="M466,0c-6.3,0-12.4,1.3-18.2,3.7L326.6,55.7c-16.9,7.3-27.9,23.9-27.9,42.3V466c0,25.4,20.7,46.1,46.1,46.1
				c6.3,0,12.4-1.3,18.2-3.7l121.2-51.9c16.9-7.3,27.9-23.9,27.9-42.3V46.1C512,20.7,491.4,0,466,0z M362.7,288
				c0,5.9-4.8,10.7-10.7,10.7s-10.7-4.8-10.7-10.7v-42.7c0-5.9,4.8-10.7,10.7-10.7s10.7,4.8,10.7,10.7V288z"/>
		</g>
	</g>
</g>
</svg>
