<?xml version="1.0" encoding="utf-8"?>
<!-- Generator: Adobe Illustrator 24.3.0, SVG Export Plug-In . SVG Version: 6.00 Build 0)  -->
<svg version="1.1" id="Layer_1" xmlns="http://www.w3.org/2000/svg" xmlns:xlink="http://www.w3.org/1999/xlink" x="0px" y="0px"
	 viewBox="0 0 512 512" style="enable-background:new 0 0 512 512;" xml:space="preserve">
<g>
	<rect x="139.7" y="273.8" width="19.6" height="155"/>
	<rect x="221.7" y="192.5" width="19.6" height="155"/>
	<rect x="303.5" y="111.1" width="19.6" height="155"/>
	<rect x="384.4" y="27.5" width="19.6" height="155"/>
</g>
<g>
	<polygon points="456.1,170.9 347.1,170.9 347.1,200.3 359.8,200.3 359.8,252.5 265.5,252.5 265.5,281.9 278.2,281.9 278.2,334.1 
		184,334.1 184,363.5 196.6,363.5 196.6,415.7 102.4,415.7 102.4,445.1 115,445.1 115,512 144.4,512 456.1,200.3 	"/>
	<rect x="-10.7" y="174.5" transform="matrix(0.7071 -0.7071 0.7071 0.7071 -59.9822 223.8412)" width="501.8" height="19.6"/>
</g>
</svg>
