<?xml version="1.0" encoding="utf-8"?>
<!-- Generator: Adobe Illustrator 24.3.0, SVG Export Plug-In . SVG Version: 6.00 Build 0)  -->
<svg version="1.1" id="Layer_1" xmlns="http://www.w3.org/2000/svg" xmlns:xlink="http://www.w3.org/1999/xlink" x="0px" y="0px"
	 viewBox="0 0 459 459" style="enable-background:new 0 0 459 459;" xml:space="preserve">
<style type="text/css">
	.st0{fill:#FFFFFF;}
</style>
<g>
	<g>
		<path class="st0" d="M229.5,0C102.5,0,0,102.8,0,229.5C0,356.3,102.7,459,229.5,459C356.9,459,459,355.8,459,229.5
			C459,102.5,356.1,0,229.5,0z M347.6,364.7c-32.7,28.7-74.2,44.3-118.1,44.3c-43.9,0-85.4-15.7-118.1-44.3
			c-4.4-3.9-6.4-9.8-5.2-15.6c11.3-55.2,46.5-98.7,91.2-113C174,222.2,158,193.8,158,161c0-46.4,32-84,71.5-84s71.5,37.6,71.5,84
			c0,32.8-16,61.2-39.4,75c44.8,14.3,79.9,57.8,91.2,113C354,354.8,352,360.8,347.6,364.7z"/>
	</g>
</g>
</svg>
